<?xml version="1.0" encoding="utf-8"?>
<!-- Generator: Adobe Illustrator 25.3.1, SVG Export Plug-In . SVG Version: 6.00 Build 0)  -->
<svg version="1.1" id="Layer_1" xmlns="http://www.w3.org/2000/svg" xmlns:xlink="http://www.w3.org/1999/xlink" x="0px" y="0px"
	 viewBox="0 0 960 960" style="enable-background:new 0 0 960 960;" xml:space="preserve">
<g>
	<g>
		<polygon points="347.28,826.27 347.28,712.24 330.3,712.24 330.3,695.26 225.14,695.26 225.14,826.27 272.49,826.27 
			272.49,809.29 314.71,809.29 314.71,826.27 		"/>
		<polygon points="225.14,336.51 283.55,394.92 283.55,500.4 300.53,500.4 300.53,542.61 264.15,542.61 225.14,581.63 225.14,687 
			330.3,687 330.3,670.02 347.4,670.02 347.4,641.02 365.68,622.74 365.68,449.93 334.72,418.98 334.72,357.48 317.75,357.48 
			317.75,315.27 334.72,315.27 334.72,283.56 274.01,283.56 248.05,257.6 248.05,138.75 201.48,138.75 201.48,155.72 184.5,155.72 
			184.5,212.97 91.22,212.97 91.22,233.78 225.14,233.78 		"/>
		<polygon points="176.24,204.72 176.24,155.72 159.26,155.72 159.26,113.51 201.48,113.51 201.48,130.49 256.31,130.49 
			256.31,254.19 277.43,275.31 342.98,275.31 342.98,315.27 359.96,315.27 359.96,332.25 415.56,332.25 488.61,259.2 475.87,246.46 
			475.87,155.72 458.89,155.72 458.89,113.51 501.11,113.51 501.11,130.49 538.6,130.49 538.6,78.78 569.36,48.03 387.13,48.03 
			387.13,233.78 276.97,233.78 276.97,48.03 91.22,48.03 91.22,204.72 		"/>
		<polygon points="289.47,851.5 272.49,851.5 272.49,834.52 225.14,834.52 225.14,911.97 289.47,911.97 		"/>
		<polygon points="823.71,48.03 785.64,86.1 785.64,113.51 802.86,113.51 802.86,155.72 760.65,155.72 760.65,113.51 777.39,113.51 
			777.39,82.68 812.04,48.03 683.03,48.03 683.03,233.78 575.03,233.78 575.03,54.03 546.86,82.2 546.86,138.75 501.11,138.75 
			501.11,155.72 484.13,155.72 484.13,243.04 512.69,271.61 574.04,271.61 574.04,255.9 616.25,255.9 616.25,298.11 599.24,298.11 
			599.24,313.56 652.1,366.42 669.38,366.42 669.38,348.76 686.36,348.76 686.36,296.08 712.59,269.84 734.86,269.84 734.86,233.78 
			868.78,233.78 868.78,48.03 		"/>
		<polygon points="225.14,569.95 258.31,536.78 258.31,500.4 275.29,500.4 275.29,398.34 225.14,348.18 		"/>
		<polygon points="716.01,278.1 694.61,299.5 694.61,348.76 711.59,348.76 711.59,390.97 669.38,390.97 669.38,374.67 
			648.68,374.67 590.99,316.98 590.99,298.11 574.04,298.11 574.04,279.86 509.27,279.86 494.45,265.03 444.21,315.27 
			491.73,362.79 531.65,362.79 531.65,405 489.43,405 489.43,372.17 438.37,321.1 418.98,340.5 359.96,340.5 359.96,357.48 
			342.98,357.48 342.98,415.56 373.93,446.51 373.93,626.16 355.65,644.44 355.65,670.02 372.52,670.02 372.52,712.24 
			355.54,712.24 355.54,834.52 314.71,834.52 314.71,851.5 297.73,851.5 297.73,911.97 408.72,911.97 408.72,415.2 734.86,415.2 
			734.86,278.1 		"/>
	</g>
	<g>
		<polygon points="695.44,712.77 643.26,712.77 643.26,677.14 626.28,677.14 626.28,640.76 592.01,606.48 559.92,606.48 
			559.92,743.5 695.44,743.5 		"/>
		<polygon points="559.92,568.55 559.92,598.23 595.43,598.23 632.12,634.92 668.5,634.92 668.5,677.14 651.52,677.14 
			651.52,704.52 703.69,704.52 703.69,743.5 734.86,743.5 734.86,568.55 		"/>
	</g>
</g>
</svg>
