<?xml version="1.0" encoding="UTF-8"?><svg id="Layer_1" xmlns="http://www.w3.org/2000/svg" viewBox="0 0 794.37 670.77"><defs><style>.cls-1{fill:#fff;}.cls-2{fill:#f1f1f2;}.cls-3{fill:#bbbdbf;}.cls-4{fill:#d0d2d3;}</style></defs><g><path class="cls-1" d="M771.88,287.26s-17.17-28.85-21.13-29.35c-3.96-.5-48.34-24.71-48.34-24.71,0,0-82.34-217.92-322.78-218.84L244.85,54.97S89.98,120.85,83.54,257.91h-9.08s-101.71,52.61-43.59,191.51l50.19,48.07,19.53,13.63s-3.05,3.65-7.94,9.88h0s0,0,0,0c.91,.12,1.76,.33,2.55,.61,.36,.09,.75,.14,1.09,.26,.37,.09,.76,.15,1.11,.27,1.3,.14,2.52,.39,3.59,.84,.31,.05,.63,.1,.93,.16,.1,0,.18-.01,.28-.01,1.38,0,2.63,.19,3.77,.51,1.69,.06,3.2,.37,4.52,.91,.11,0,.22-.02,.33-.02,1.16,0,2.22,.14,3.21,.37,1.35,.13,2.56,.45,3.65,.92,.66-.09,1.33-.16,2.05-.16,5.15,0,8.66,2.48,10.56,5.87,.92,1.05,1.65,2.23,2.16,3.52,2.11,2.49,3.09,5.84,2.93,9.12,7.46,5.23,14.01,12.02,19.13,19.69,2.09,3.13,3.85,6.41,5.28,9.76,7.37,4.54,14.4,9.29,20.97,13.77,13.95,9.51,27.46,19.76,41.09,29.84,3.2-1.53,7.1-1.56,11.09,.98,18.01,11.48,37.73,19.99,55.85,31.26,1.58-.32,3.29-.38,5.13-.05,31.8,5.68,65.2,16.18,97.97,14.08,1.73-.99,3.83-1.62,6.37-1.69,2.88-.07,5.76-.14,8.65-.21,.02,0,.04,0,.06,0,1.7-.34,3.29-.35,4.77-.12,41.44-1.11,82.82-3.4,120.32-22.93,16.9-8.8,32.07-20.2,47.17-31.64,16.77-12.7,32.87-25.29,47.58-40.19-9.14-13.51-10.74-15.77-10.74-15.77l57.37-54.46s88.02-1.78,99.84-114.57l-1.39-94.63Z"/><path d="M287.62,534.92c0-1.6,1.5-2.88,3.34-2.88s3.39,1.28,3.39,2.88-1.51,2.88-3.39,2.88-3.34-1.29-3.34-2.88Z"/><g><path class="cls-4" d="M704.55,245.9s52,138.01-38.44,254.79l25.24,.86s62.67-13.68,85.78-130.14c-12.36-81.82-34.17-96.91-34.17-96.91,0,0,1.17-20.37-38.4-28.6Z"/><path class="cls-3" d="M194.07,110.6s254.12-158.3,423.97,61.06c0,0,18.22,38.14-92.38-25.05l37.86,34.96s122.88,112.56,68.46,249.69c-10.96,52.57-16.95,46.47-13.94,49.52,2.98,3.05-88.06,99.61-211.92,103.92-123.84,4.28,30.46,9.17,30.46,9.17,0,0-6.67,23.95-52.01,25.6-45.36,1.66-139.47-4.32-213.22-82.15l68.89,75.55s128.59,69.96,240.52,31.35c111.97-38.6,192.45-93.58,206.46-184.93,14.01-91.37,31.36-109.07,27.23-139.8-4.13-30.73-104.83-409.28-447.87-277.32l-87.37,46.19"/><path d="M624.27,579.15c1.81-1.81,3.61-3.65,5.38-5.54,.74-.79,1.51-1.44,2.3-1.98,60-60.66,97.13-144.17,97.13-236.23C729.08,150.48,579.29,0,395.15,0S61.21,150.48,61.21,335.41s149.79,335.36,333.94,335.36c88.62,0,169.27-34.85,229.11-91.62ZM94.2,335.41c0-166.74,135.01-302.41,300.95-302.41s300.96,135.67,300.96,302.41-135.03,302.39-300.96,302.39S94.2,502.15,94.2,335.41Z"/><path d="M59.67,471.59c-38.78-47.49-24.32-134.29-22.55-144.04,7.2-39.47,59.9-53.01,60.43-53.15l-7.82-32.03c-3.01,.74-73.98,18.61-85.06,79.27-3.34,18.4-17.7,113.08,29.45,170.83,18.09,22.16,42.53,35.65,72.86,40.28,.05,0,.09,.01,.14,.02,6.64,1.01,13.55,1.61,20.75,1.76l.68-32.97c-30.43-.68-52.97-10.44-68.88-29.96Z"/><path d="M666.49,519.98l-.68-32.98c30.44-.64,52.97-10.44,68.9-29.93,38.76-47.5,24.29-134.32,22.53-144.06-7.28-39.8-59.85-52.99-60.38-53.12l7.77-32.05c3.01,.73,74,18.59,85.04,79.26,3.36,18.39,17.72,113.07-29.42,170.82-22.09,27.07-53.63,41.21-93.78,42.06Z"/><path d="M656.57,332.13c0-.07,0-.14-.01-.19,0-.06,0-.08-.02-.11h0c-7.87-45.76-44.22-179.14-202.22-215.38-56.45-11.29-103.12-3.32-118.04-.09-140.91,32.18-185.16,141.52-198.73,197.43h0s-25.48,85.19,8.91,153.38h.04c34.41,75.42,132.77,129.65,248.6,129.22,114.85-.45,212.14-54.53,246.75-129.22h.02s30.9-59.16,14.7-135.05Z"/><path class="cls-1" d="M303.47,226.39s4.58,3.21,6.75,12.5l4.44,19.43s5.5-16.91,8.37-25.74c0,0,1.09-2.61,2.44-4.93l28.54-6.76s-11.71-3.9-20.61-6.89c-.02,0-7.07-2.7-10.89-11.89l-4.95-21.57s-5.08,15.56-8.01,24.62c-1.28,2.67-4.11,6.38-10.36,7.83l-20.97,4.96s16.51,5.5,25.24,8.45Z"/><path class="cls-1" d="M195.62,322.35s1.85,1.32,2.73,5.13l1.82,7.94s2.25-6.91,3.43-10.51c0,0,.44-1.08,.99-2.03l11.67-2.76s-4.77-1.61-8.4-2.81c-.02,0-2.9-1.13-4.44-4.88l-2.04-8.81s-2.06,6.35-3.27,10.06c-.55,1.1-1.7,2.59-4.23,3.22l-8.58,2.01s6.72,2.23,10.32,3.44Z"/><path class="cls-2" d="M587.66,490.76c7.96-15.25,17.95-29.32,25.95-44.48,.36-1.9,.73-3.74,.96-5.71,.3-2.55,.81-5.1,1.49-7.64-11.75-9.19-23.41-15.94-23.41-15.94l-15.75-4.46c-104.68-68.94-229.66-41.13-229.66-41.13,0,0-25.03-8.74-27.82-9.32-2.78-.61-18.77,6.53-44.04,15.42-25.3,8.93-23.39,27.33-23.39,27.33l-45.27,28.48,6.34,38.6s-7.57,8.99-16.85,21.76c12.82,12.47,25.43,25.29,38.97,38.11,7.4,7.02,14.9,13.96,22.57,20.68,8.94,.35,17.9,.69,26.96,1.01,9.68-.42,19.27-.22,28.51,.93,21.74,.59,43.73,1.05,65.96,1.29,1.94-.02,3.87-.07,5.82-.08,31.37-.52,62.58-.74,93.88,.65,10.91-10.84,24.32-19.18,39.88-23.49,17.57-4.88,41.04-15.82,63.02-28.05,1.63-4.73,3.5-9.42,5.87-13.96Z"/><path class="cls-4" d="M587.66,490.76c7.96-15.25,17.95-29.32,25.95-44.48,.36-1.9,.73-3.74,.96-5.71,.36-2.96,.95-5.92,1.79-8.88l-13.78-15.56-7.16-3.6c-3.66,20.07-21.42,38.23-48.69,52.32,1.02-2.11,1.48-4.06,1.27-5.55-.84-6.36-19.41-26.33-47.06-20.22l-5.8,16.85s6.6,17.11,19.93,22.05c-22.62,7.48-48.89,12.7-77.24,15.01,8.28-11.46-9.86-16.6-9.86-16.6,0,0-14.79-3.54-34.33-.21-14.01,2.37-12.21,12.18-10.01,17.6-66.81-3.45-123.17-22.94-151.17-50.1l23-11.73,3.36-6.73c-15.97,2.15-24.4,12.26-27.63,17.18-4.8-4.84-8.75-9.91-11.63-15.18-18.32,15.98-35.35,34.91-45.07,46.28,20.93,18.42,39.68,38.38,60.7,58.28,7.37,6.99,14.86,13.96,22.57,20.67,8.94,.36,17.9,.7,26.96,1.02,9.68-.42,19.27-.22,28.51,.93,21.74,.59,43.73,1.05,65.96,1.29,1.94-.02,3.87-.07,5.82-.08,31.37-.52,62.58-.74,93.88,.65,10.91-10.84,24.32-19.18,39.88-23.49,17.57-4.88,41.04-15.82,63.02-28.05,1.63-4.73,3.5-9.42,5.87-13.96Z"/><path d="M586.98,433.27c.6,.38,1.27,.58,2.01,.58,1.28,0,2.47-.62,3.1-1.61,.65-.96,.63-2.14-.03-3.07-1.07-1.45-1.86-3-2.72-4.6-.54-.99-1.1-1.98-1.67-2.95-.76-1.32-1.79-2.55-2.92-3.69,1.49-.13,2.92-.3,4.45-.52,1.02-.13,2.04-.28,3.18-.38,.1-.03,.14-.03,.25-.03,4.44,0,11.7,9.35,16.54,15.53,2.01,2.59,3.84,4.91,5.58,6.85,.59-4.29,1.68-8.59,3.27-12.81-1.24-1.48-2.45-2.99-3.69-4.52-3.12-3.92-6.33-7.96-10.21-11.57-3.64-3.38-8.26-3.77-11.4-3.77-2.23,0-4.48,.25-6.68,.44-3.62,.36-7.02,.63-9.2,.07-.96-.24-1.96-.24-2.85-.05-36.42-24.5-79.86-40.78-125.85-47.02-1.98-.94-2.46-1.94-3.22-3.52-.65-1.25-1.44-2.83-3.12-4.43-4.23-4.1-9.61-4.57-13.28-4.57-2.12,0-4.31,.18-6.41,.32l-.18,.04c-1.54,.12-3.29,.19-5.56,.19-1.21,0-2.45-.03-3.68-.05-1.24,0-2.5-.02-3.74-.02-2.56,0-5.86,.07-8.98,.52-6.63,.97-11.63,4.03-16.45,6.98-1.51,.93-3.04,1.86-4.62,2.7-11.3,.94-22.72,2.53-33.94,4.69-.49-.06-1.03-.18-1.51-.25-3.9-.68-7.23-1.25-10.69-3.15-3.6-2-7.04-3.71-12.14-4.48-.95-.15-1.96-.21-2.94-.21-8.67,0-16.86,5.24-23.46,9.46-.92,.58-1.79,1.14-2.62,1.67-4.45,2.76-10.04,4.15-16.02,5.63-6.69,1.66-13.6,3.39-18.96,7.23-5.33,3.82-6.18,8.64-6.94,12.89-.54,2.93-1.02,5.68-2.82,8.23-.26,.37-.45,.79-.6,1.19-20.19,12.48-38.28,27.25-53.75,43.92-5.03,1.37-10.06,3.78-14.48,5.88-1.19,.57-2.35,1.12-3.48,1.64-5.53,2.56-9.26,6.38-12.54,10.4,6.76,5.43,13.23,11.04,19.5,16.78,0-.67,.03-1.15,.03-1.23,15.85-23.32,36.82-44.26,62.18-61.64,.18-.11,18.55-12.38,32.3-20.52l1.44-.86-.27-1.48c-.25-1.27-1.31-2.28-2.73-2.63-.89-.22-1.81-.32-2.75-.32-3.94,0-7.31,1.95-10.34,3.95,.13-.92,.21-1.92,.29-2.95,.4-5.95,14.81-10.11,24.32-12.87,3.67-1.09,6.87-2,9.3-2.95,3.76-1.49,6.9-3.38,9.96-5.24,4.59-2.78,8.61-5.23,13.29-5.23,2.62,0,5.36,.71,8.42,2.19,.89,.46,1.75,.85,2.6,1.17-4.3,1.15-9.67,3.18-10.38,7.89-.21,1.38,.71,2.65,2.29,3.08l.97,.27,.94-.31c6.1-2.06,22.32-7.05,40.85-8.87h.17c13.61-1.87,27.44-2.82,41.1-2.82,59.75,0,117.99,17.8,164.12,50.11l2.2,1.54c.15,.11,.36,.28,.51,.41,1.69,1.46,3.33,3.04,4.87,4.6,2.87,2.88,5.81,5.82,9.79,8.2Z"/><path d="M445,381.91c-.18,0-.18,.21,0,.21,.17,0,.17-.21,0-.21Z"/><path d="M488.98,390.94l8.67,7.87-4.96-10.44c1.01-5.3-24.23-11.46-48.44-14.63-24.21-3.11-50.43-3.6-51.37,1.67-.06,.3,0,.64,.1,.98-1.53,2.23-6.12,8.42-13.36,12.75,0,0,14.01-3.21,19.98-8.3,3.94,1.57,9.32,3.11,15.46,4.55-.49,1.67-2.22,6.72-5.13,9.9,0,0,5.57-2.61,11.43-8.56,6.32,1.28,13.22,2.4,19.99,3.27,5.36,.71,10.82,1.28,16.08,1.68,2.88,4.07,11.33,13.15,11.33,13.15l-4.04-12.73c10.45,.54,19.46,.24,24.25-1.17Zm-85.42-12.78l3.32,1.3c-1.54-.46-2.63-.93-3.32-1.3Zm3.32,1.3s31.4-3.77,70.99,9.21c-6.28,.29-18.7-.27-35.84-2.51-17.19-2.21-29.28-4.8-35.14-6.7Z"/><path d="M364.11,392.55c0,2.44-2.32,4.45-5.18,4.45s-5.18-2.01-5.18-4.45,2.3-4.41,5.18-4.41,5.18,1.97,5.18,4.41Z"/><path d="M206.72,476.35c0,2.44-2.31,4.42-5.18,4.42s-5.2-1.99-5.2-4.42,2.33-4.43,5.2-4.43,5.18,1.99,5.18,4.43Z"/><path d="M410.81,477.27c13.13,0,24.2,4.15,28.09,9.93,.5-1.01,.72-2.04,.72-3.14,0-7.97-13.26-14.44-29.59-14.44s-29.63,6.48-29.63,14.44c0,1.6,.53,3.12,1.5,4.54,2.93-6.49,14.75-11.33,28.9-11.33Z"/><path d="M409.31,499.26c-18.06,0-32.98-6.4-35.79-14.81-.36,.93-.5,1.88-.5,2.88,0,9.79,16.24,17.73,36.29,17.73s36.32-7.94,36.32-17.73c0-1-.21-1.94-.52-2.88-2.81,8.41-17.76,14.81-35.8,14.81Z"/><path d="M264.42,485.49c3.06-4.22,7.52-6.77,10.96-6.7-.33-.36-.75-.69-1.22-.95-3.5-1.86-9.45,.88-13.29,6.1-3.85,5.24-4.1,11.02-.57,12.88,.68,.38,1.49,.55,2.33,.58-2.17-2.47-1.52-7.37,1.8-11.9Z"/><path d="M273.7,491.12c-4.22,5.79-10.54,9.05-14.89,7.99,.37,.34,.73,.61,1.15,.86,4.3,2.28,11.57-1.07,16.3-7.5,4.67-6.4,5.02-13.47,.71-15.78-.44-.22-.89-.37-1.38-.51,3.03,2.88,2.32,9.17-1.9,14.93Z"/><path d="M262.27,423.88l6.64,.66-6.81-2.92c-2.41-2.55-13.27,2.7-22.24,8.89-9,6.2-17.24,14.18-14.85,16.7,.18,.18,.34,.29,.54,.39,.68,1.45,2.42,5.5,2.42,9.58,0,0,2.64-5.71,1.89-9.76,2-.54,4.44-1.53,7.02-2.86,.69,.86,2.75,3.56,3.47,5.82,0,0,.38-2.87-.85-7.21,2.61-1.43,5.25-3.08,7.79-4.82,1.96-1.38,3.91-2.83,5.71-4.3,2.99,.81,10.17,2.07,10.17,2.07l-7.7-4.16c3.46-3.06,6.05-5.96,6.82-8.08Zm-30.91,20.68s7.63-11.36,26.34-18.16c-1.73,2.07-5.81,5.7-12.19,10.07-6.41,4.43-11.41,7.09-14.15,8.09Z"/><path d="M229.68,445.06l1.68-.5c-.72,.29-1.31,.46-1.68,.5Z"/><path d="M325.25,418.97c-8.43,0-15.21,4.09-15.21,9.11,0,.18,.08,.39,.08,.54,2.74-2.32,7.26-3.86,12.4-3.86,8.04,0,14.61,3.75,15.1,8.54,1.73-1.49,2.78-3.28,2.78-5.23,0-5.03-6.79-9.11-15.15-9.11Z"/><path d="M529.1,439.15c-17.43-9.16-35.91-10.57-41.24-3.16-5.31,7.41,4.51,20.84,21.95,30,17.48,9.12,35.92,10.56,41.22,3.12,5.33-7.43-4.49-20.85-21.93-29.97Zm16.43,27c-3.69,5.13-16.51,4.14-28.62-2.18-12.08-6.34-18.92-15.67-15.21-20.8,3.66-5.16,16.5-4.16,28.6,2.16,12.08,6.36,18.9,15.66,15.22,20.81Z"/><path d="M491.02,433.31s-7.52,5.35-20.5,5.76c0,0,9.97,1.97,20.5,0"/><path d="M551.03,469.12s-2.73,7.61,1.43,14.53c0,0-5.93-1.3-6.13-12.22"/><polyline points="495.07 452.54 486.42 459.3 497.64 457.18"/><polyline points="519.46 469.12 519.46 477.91 525.66 469.12"/><path d="M615.71,390.21c-1.79,26.25-9.05,45.98-11.97,52.97l-2.48,5.35c-28.01,60.45-110.82,101.32-206.06,101.67h-1.33c-95.69,0-178.64-40.78-206.38-101.59l-4.06-8.77c-4-9.75-6.38-20.12-7.79-30.44-9.3,8.71-20.03,15.57-31.6,20.31,1.82,7.96,4.27,15.94,7.49,23.7l4.48,9.69c33.24,72.84,128.85,121.8,237.86,121.8h.03l1.41-.02c108.44-.41,203.85-49.34,237.41-121.75l2.73-5.93c3-7.21,9.4-24.41,12.92-47.51-11.99-4.46-23.13-11.07-32.67-19.47Z"/><path class="cls-1" d="M507.44,281.08c0,3.63-2.96,6.59-6.61,6.59s-6.59-2.95-6.59-6.59,2.95-6.59,6.59-6.59,6.61,2.95,6.61,6.59Z"/><path class="cls-1" d="M436.57,339.69c0,1.75-1.41,3.2-3.18,3.2s-3.17-1.45-3.17-3.2,1.41-3.2,3.17-3.2,3.18,1.45,3.18,3.2Z"/><path class="cls-1" d="M552.52,329.85s.79,.56,1.17,2.2l.75,3.36s.98-2.95,1.47-4.48c0,0,.18-.44,.41-.85l4.97-1.18s-2.01-.68-3.6-1.2c0,0-1.23-.46-1.87-2.05l-.89-3.74s-.86,2.68-1.37,4.24c-.23,.49-.72,1.13-1.8,1.39l-3.65,.85s2.86,.96,4.39,1.45Z"/><path class="cls-1" d="M644.92,377.9c-5.89-75.36-32.19-128.62-63.51-166.09-55.9-63.95-130.07-65.2-130.07-65.2,35.3,11.28,64.38,28.48,88.27,48.45-1.53,.35-2.91,.9-3.99,1.85-7.93,6.64-1.71,27,13.82,45.49,15.5,18.46,34.53,28.07,42.41,21.42,1.71-1.42,2.64-3.61,3.05-6.17,40,60.54,50.03,120.26,50.03,120.26Z"/></g><path d="M367.82,127.98V20.65c-2.64,.39-5.29,.76-7.93,1.17v106.94c2.64-.28,5.28-.53,7.93-.77Z"/><path d="M424.75,126.3V14.36c-.78,.08-1.54,.2-2.33,.26-1.87,.13-3.73,.31-5.6,.46V125.66c2.74,.06,5.38,.28,7.93,.64Z"/></g><g><path d="M460.85,227.11h-141.06c-82.17,0-148.81,66.61-148.81,148.79s66.64,148.81,148.81,148.81h141.06c82.18,0,148.81-66.61,148.81-148.81s-66.64-148.79-148.81-148.79Z"/><g><rect class="cls-1" x="410.47" y="398.44" width="44.52" height="44.52"/><polygon class="cls-1" points="441.8 265.98 441.8 313.25 414.32 313.25 414.32 265.98 366.5 265.98 366.5 313.25 338.47 313.25 338.47 265.98 291.2 265.98 291.2 313.25 325.28 313.25 325.28 485.84 372 485.84 372 359.42 455 359.42 455 313.25 489.07 313.25 489.07 265.98 441.8 265.98"/></g></g><rect x="268.93" y="165.4" width="104.25" height="67.87"/><rect x="184.97" y="455.75" width="125.24" height="58.07"/><rect x="244.44" y="494.94" width="298.05" height="55.97"/><rect x="513.11" y="399.08" width="94.45" height="111.95"/></svg>