<?xml version="1.0" encoding="UTF-8"?><svg id="Layer_1" xmlns="http://www.w3.org/2000/svg" viewBox="0 0 716.18 826.96"><defs><style>.cls-1{fill:aqua;}.cls-2{fill:#0049ff;}.cls-3{fill:#fff200;}.cls-4{fill:#ae00ff;}.cls-5{fill:#092530;}.cls-6{fill:#353535;}.cls-7{fill:#50ff00;}</style></defs><g id="logo-logo"><g><path class="cls-5" d="M358.09,0L0,206.74v413.49l358.09,206.74,358.09-206.74V206.74L358.09,0"/><path class="cls-3" d="M639.52,221.49l-115.16,66.5L242.92,125.5l115.16-66.49,281.43,162.48"/><path class="cls-1" d="M76.66,221.49l115.16-66.49,115.16,66.49-115.16,66.49-115.17-66.49"/><path class="cls-4" d="M358.09,251l140.72,81.25v162.48l-115.17,66.49v-162.49l-140.71-81.24,115.16-66.49"/><path class="cls-6" d="M383.64,620.23l115.17-66.49v132.98l-115.17,66.49v-132.98"/><path class="cls-7" d="M51.11,265.75l281.43,162.49v324.97S51.11,590.72,51.11,590.72V265.75"/><path class="cls-2" d="M549.91,657.21V332.24l115.16-66.49v324.97l-115.16,66.49"/></g></g></svg>