<?xml version="1.0" encoding="utf-8"?>
<!-- Generator: Adobe Illustrator 25.3.1, SVG Export Plug-In . SVG Version: 6.00 Build 0)  -->
<svg version="1.1" id="Layer_1" xmlns="http://www.w3.org/2000/svg" xmlns:xlink="http://www.w3.org/1999/xlink" x="0px" y="0px"
	 viewBox="0 0 960 960" style="enable-background:new 0 0 960 960;" xml:space="preserve">
<style type="text/css">
	.st0{fill:#666666;}
	.st1{opacity:0.53;}
	.st2{fill:#191919;}
	.st3{fill:#FFFFFF;}
</style>
<g>
	<polygon points="648.81,285.3 624.12,309.99 624.12,321.79 353.51,321.79 344.43,312.71 244.95,312.71 244.95,229.81 
		110.94,229.81 110.94,363.82 225.93,363.82 225.93,411.66 110.94,411.66 110.94,547.01 225.93,547.01 225.93,596.18 110.94,596.18 
		110.94,730.19 244.95,730.19 244.95,647.29 701.28,647.29 721.62,667.63 849.06,667.63 849.06,285.3 	"/>
	<g id="Circuit_2_">
		<path class="st0" d="M637.72,474.56c-1.34-1.34-2.25-2.77-2.8-4.23c-1.05-1.67-1.7-3.72-1.7-6.2V329.48h-285.3v195.88h340.59
			L637.72,474.56z"/>
		<path d="M633.22,331.3v-3.63H347.34c0.03,0.36,0.05,0.73,0.05,1.11v2.52H633.22z"/>
		<g class="st1">
			<polygon points="444.04,377.68 415.07,377.68 396.27,358.88 347.76,358.88 347.76,357.07 397.02,357.07 415.82,375.86 
				444.04,375.86 			"/>
		</g>
		<g class="st1">
			<polygon points="439.18,390.48 412.62,390.48 393,370.87 348.71,370.87 348.71,369.05 393.76,369.05 413.37,388.67 
				439.18,388.67 			"/>
		</g>
		<g class="st1">
			<polygon points="379.85,503.25 347.76,503.25 347.76,501.43 378.04,501.43 378.04,435.78 410.98,402.83 439.18,402.83 
				439.18,404.65 411.73,404.65 379.85,436.53 			"/>
		</g>
		<g class="st1">
			<polygon points="394.33,524.13 392.52,524.13 392.52,440.91 417.52,415.9 442.41,415.9 442.41,417.72 418.27,417.72 
				394.33,441.66 			"/>
		</g>
		<g class="st1">
			<polygon points="501.95,524.13 500.14,524.13 500.14,496.93 488.88,485.68 436.18,485.68 421.34,470.85 421.34,429.52 
				442.41,429.52 442.41,431.34 423.16,431.34 423.16,470.09 436.93,483.86 489.64,483.86 501.95,496.18 			"/>
		</g>
		<g class="st1">
			<polygon points="470.56,484.77 468.74,484.77 468.74,466.76 454.62,466.76 454.62,449.52 456.44,449.52 456.44,464.94 
				470.56,464.94 			"/>
		</g>
		<g class="st1">
			<rect x="545.12" y="372.87" width="88.11" height="1.82"/>
		</g>
		<g class="st1">
			<polygon points="631.56,430.32 589,387.76 545.12,387.76 545.12,385.94 589.75,385.94 632.84,429.04 			"/>
		</g>
		<g class="st1">
			<polygon points="633.22,446.72 586.06,399.56 545.12,399.56 545.12,401.38 585.31,401.38 633.22,449.29 			"/>
		</g>
		<g class="st1">
			<polygon points="583.88,355.62 545.12,355.62 545.12,353.8 583.13,353.8 600.85,336.08 600.85,329.48 602.67,329.48 
				602.67,336.83 			"/>
		</g>
		<g class="st1">
			<polygon points="639.26,476.09 592.06,476.09 545.76,429.79 544.47,431.07 591.31,477.91 641.06,477.91 641.06,477.9 			"/>
		</g>
		<g class="st1">
			<polygon points="574.25,522.5 572.43,522.5 572.43,495.45 527.14,450.16 528.42,448.88 574.25,494.7 			"/>
		</g>
		<g class="st1">
			<polygon points="524.49,524.13 522.67,524.13 522.67,504.16 540.78,504.16 540.78,494.16 496.79,450.16 498.07,448.88 
				542.6,493.4 542.6,505.97 524.49,505.97 			"/>
		</g>
		<g class="st1">
			<polygon points="670.14,506.98 628.01,506.98 606.99,485.96 580.61,485.96 544.64,449.99 543.36,451.28 579.86,487.78 
				606.24,487.78 627.26,508.79 671.67,508.79 671.67,508.5 			"/>
		</g>
	</g>
	<g id="FTW_x5F_Logo_2_">
		<polygon class="st2" points="655.3,524.13 529.17,524.13 347.76,524.13 347.76,329.48 340.5,322.22 235.44,322.22 235.44,239.31 
			120.45,239.31 120.45,354.31 235.44,354.31 235.44,421.17 120.45,421.17 120.45,537.5 235.44,537.5 235.44,605.69 120.45,605.69 
			120.45,720.69 235.44,720.69 235.44,637.78 531.24,637.78 655.3,637.78 790.61,637.78 790.61,524.13 		"/>
		<path d="M239.07,724.32H116.81V602.06h114.99v-60.93H116.81V417.53h114.99v-59.59H116.81V235.68h122.26v82.9H342l9.39,9.39v192.52
			h442.85v120.92H239.07V724.32z M124.08,717.05h107.73v-82.9h555.17V527.76H344.13V330.99l-5.14-5.14H231.81v-82.9H124.08v107.73
			h114.99v74.12H124.08v109.07h114.99v75.46H124.08V717.05z"/>
		<g>
			<path d="M516.49,570.67H234.97c0.06,0.39,0.11,0.78,0.16,1.18H516l48.11,48.11v17.83h1.17v-18.31L516.49,570.67z"/>
		</g>
		<polygon points="449.91,571.26 457.81,579.16 524.14,579.16 516.24,571.26 		"/>
		<polygon class="st2" points="463.23,346.6 441.56,368.27 441.56,450.13 545.09,450.13 545.09,346.6 		"/>
		<g>
			<path d="M322.42,321.1c-0.61-0.04-1.21-0.1-1.82-0.14v84.36l24.73,24.73l1.28-1.28l-24.19-24.19V321.1z"/>
		</g>
		<path d="M547.47,452.51H439.18v-85.22l23.06-23.07h85.22V452.51z M443.94,447.75h98.77v-98.78h-78.5l-20.28,20.28V447.75z"/>
		<g>
			<polygon points="555.99,527.41 588.7,560.12 706.59,560.12 706.59,599.99 572.18,599.99 499.61,527.41 			"/>
		</g>
	</g>
	<g id="KeyHandle_2_">
		<polygon class="st3" points="668.93,294.81 652.75,294.81 633.63,313.93 633.63,469.85 704.97,541.18 704.97,637.53 
			725.56,658.12 839.55,658.12 839.55,294.81 		"/>
		<path d="M843.19,661.75H724.05l-22.72-22.72v-96.34L630,471.35V312.43l21.25-21.25h191.94V661.75z M727.06,654.49h108.86V298.44
			H654.25l-16.99,16.99v152.91l71.34,71.34v96.34L727.06,654.49z"/>
		<g>
			<path d="M841.01,653.51v-21.04l-34.09-34.09v30.23l28.41,28.41C837.19,655.8,839.08,654.63,841.01,653.51z"/>
		</g>
		<g>
			<polygon points="841.01,584.34 806.91,550.25 806.91,580.48 841.01,614.57 			"/>
		</g>
		<g>
			<polygon points="806.91,511.78 806.91,532.35 841.01,566.44 841.01,536.21 816.58,511.78 			"/>
		</g>
		<rect x="656.65" y="321" width="21.25" height="21.25"/>
		<rect x="698.6" y="321" width="21.25" height="21.25"/>
		<rect x="656.65" y="367.05" width="21.25" height="21.25"/>
		<g>
			<polygon points="837.8,446.67 805.09,413.96 805.09,296.07 765.23,296.07 765.23,430.48 837.8,503.05 			"/>
		</g>
		<g>
			<path class="st3" d="M777.57,398.52c-1.04,0-1.92-0.36-2.64-1.09c-0.72-0.72-1.09-1.6-1.09-2.63v-15.77h5.19v11.42
				c0,0.39,0.14,0.72,0.42,1c0.28,0.28,0.62,0.42,1.02,0.42h2.57v-12.84h4.92v12.84h6.41v6.64H777.57z"/>
			<path class="st3" d="M773.84,375.27v-19.64h5.19v6.5h15.33v6.37h-15.33v6.77H773.84z"/>
			<path class="st3" d="M773.84,324.07v-6.66h14.14c1.76,0,3.26,0.62,4.51,1.87c1.25,1.25,1.87,2.76,1.87,4.53v5.58
				c0,2.22-0.91,3.97-2.74,5.25c1.83,1.28,2.74,3.02,2.74,5.24v5.6c0,1.76-0.62,3.26-1.87,4.51c-1.25,1.25-2.75,1.87-4.51,1.87
				h-14.14v-6.64h12.43c1.94-0.27,2.9-1.5,2.9-3.7c0-2.2-0.97-3.44-2.9-3.7h-12.43v-6.51h12.43c1.94-0.24,2.9-1.45,2.9-3.63
				c0-2.17-0.97-3.37-2.9-3.61H773.84z"/>
		</g>
	</g>
</g>
</svg>
