<svg width="64" height="64" viewBox="0 0 64 64" fill="none" xmlns="http://www.w3.org/2000/svg">
    <rect width="64" height="64" rx="32" fill="url(#paint0_linear_1801_3228)"/>
    <path fill-rule="evenodd" clip-rule="evenodd" d="M42.8971 11.0226C42.4824 15.7687 36.6592 17.719 30.0186 19.9596C20.4835 23.1768 12.8638 25.2231 11.6622 32.4629C10.6129 38.7836 14.7732 46.1388 20.7015 46.6581C22.0123 46.757 22.0123 46.757 20.8234 45.1512C18.5173 42.0366 19.3595 37.8985 21.0875 36.049C22.5032 34.5337 26.5702 33.624 30.7949 37.8294C33.3457 40.3685 34.5463 42.2104 35.4741 45.1027C36.4145 48.0344 35.5597 51.9238 33.0555 54.6569C32.1018 55.6978 32.0223 55.6754 34.7162 55.1272C47.1276 52.6017 49.4206 40.767 40.9304 31.8614C37.8069 28.585 37.7565 28.091 40.5459 26.0642C47.2663 21.1809 47.6864 15.337 43.695 10.8199C42.9963 10.0291 42.9963 10.0291 42.8971 11.0226Z" fill="white"/>
    <defs>
        <linearGradient id="paint0_linear_1801_3228" x1="3.7647" y1="7.05882" x2="58.8235" y2="56.4706" gradientUnits="userSpaceOnUse">
            <stop stop-color="#C63BC9"/>
            <stop offset="1" stop-color="#642FFA"/>
        </linearGradient>
    </defs>
</svg>
